<?xml version="1.0" encoding="UTF-8"?>
<svg id="Layer_1" data-name="Layer 1" xmlns="http://www.w3.org/2000/svg" viewBox="0 0 402.65 289.58">
  <defs>
    <style>
      .cls-1 {
        fill: #a0c7aa;
      }
    </style>
  </defs>
  <path class="cls-1" d="M402.65,118.61c0,39.74-20.26,74.74-51,95.28,9.69-14.33,15.39-31.62,15.39-50.26,0-49.38-40.06-89.44-89.44-89.44-19.06,0-36.72,5.94-51.24,16.14-9.32,6.49-17.34,14.74-23.6,24.25-6.63-10.02-15.21-18.64-25.18-25.36-14.23-9.46-31.3-15.02-49.71-15.02-49.38,0-89.44,40.06-89.44,89.44,0,16.92,4.68,32.74,12.84,46.27C20.36,189.36,0,154.31,0,114.43,0,51.24,51.24,0,114.43,0c35.75,0,67.7,16.37,88.65,42.06,20.96-23.28,51.33-37.93,85.08-37.93,23.83,0,45.95,7.28,64.26,19.71,30.28,20.63,50.22,55.36,50.22,94.77Z"/>
  <path class="cls-1" d="M213.61,221.14l14.88,63.62-20.63,4.82-15.58-66.49c-7.23-3.34-12.24-10.66-12.24-19.15,0-5.01,1.72-9.6,4.64-13.21,3.89-4.87,9.88-7.98,16.6-7.98,1.16,0,2.27.09,3.38.28,3.11.51,5.93,1.67,8.44,3.34l102.47-68.02,11.73,17.62-104.93,69.64c-.46,6.4-3.8,12.01-8.76,15.53Z"/>
</svg>
