<?xml version="1.0" encoding="UTF-8"?>
<svg id="Layer_1" data-name="Layer 1" xmlns="http://www.w3.org/2000/svg" viewBox="0 0 751.82 147.5">
  <defs>
    <style>
      .cls-1 {
        fill: #a0c7aa;
      }

      .cls-2 {
        fill: #fffbed;
      }
    </style>
  </defs>
  <path class="cls-1" d="M149.44,62.63c0,14.75-7.52,27.74-18.93,35.36,3.6-5.32,5.71-11.74,5.71-18.65,0-18.33-14.87-33.2-33.2-33.2-7.07,0-13.63,2.2-19.02,5.99-3.46,2.41-6.44,5.47-8.76,9-2.46-3.72-5.64-6.92-9.34-9.41-5.28-3.51-11.62-5.58-18.45-5.58-18.33,0-33.2,14.87-33.2,33.2,0,6.28,1.74,12.15,4.77,17.17C7.55,88.89,0,75.88,0,61.08,0,37.62,19.02,18.61,42.47,18.61c13.27,0,25.12,6.07,32.9,15.61,7.78-8.64,19.05-14.08,31.58-14.08,8.85,0,17.05,2.7,23.85,7.31,11.24,7.66,18.64,20.55,18.64,35.17Z"/>
  <path class="cls-1" d="M79.28,100.68l5.52,23.61-7.66,1.79-5.78-24.68c-2.68-1.24-4.54-3.96-4.54-7.11,0-1.86.64-3.56,1.72-4.9,1.45-1.81,3.67-2.96,6.16-2.96.43,0,.84.03,1.26.1,1.15.19,2.2.62,3.13,1.24l38.03-25.24,4.35,6.54-38.94,25.85c-.17,2.37-1.41,4.46-3.25,5.76Z"/>
  <rect class="cls-2" x="177.45" width="7.1" height="147.5"/>
  <path class="cls-2" d="M273,119.41c-7.9,6.23-17.85,9.93-28.67,9.93-25.66,0-46.46-20.81-46.46-46.46s20.81-46.46,46.46-46.46c10.45,0,20.08,3.44,27.84,9.26l-7.76,15.47c-4.89-4.08-11.2-6.54-18.09-6.54-15.61,0-28.27,12.65-28.27,28.27s12.67,28.26,28.27,28.26c7.19,0,13.75-2.68,18.72-7.09l7.95,15.37Z"/>
  <circle class="cls-2" cx="362.54" cy="50.93" r="11.6"/>
  <rect class="cls-2" x="353.07" y="72.03" width="19.18" height="55.59"/>
  <path class="cls-2" d="M427.92,36.06v41.46c-4.85-3.67-10.91-5.83-17.45-5.83-16.02,0-29.01,12.99-29.01,29.01s12.99,29,29.01,29c6.54,0,12.6-2.17,17.45-5.82v5.11h17.71V36.06h-17.71ZM415.4,116.44c-7.88,0-14.27-6.38-14.27-14.27s6.38-14.27,14.27-14.27c5.4,0,10.1,2.99,12.53,7.43,1.1,2.03,1.74,4.35,1.74,6.83s-.64,4.8-1.74,6.83c-2.43,4.44-7.12,7.43-12.53,7.43Z"/>
  <polygon class="cls-1" points="541.37 60.83 541.37 88.12 584.89 88.12 584.89 95.98 541.37 95.98 541.37 129.69 532.53 129.69 532.53 52.96 588.09 52.96 588.09 60.83 541.37 60.83"/>
  <polygon class="cls-1" points="751.82 71.29 751.82 78.68 739.03 78.68 739.03 129.34 730.19 129.34 730.19 78.68 718.38 78.68 718.38 71.29 730.19 71.29 730.19 50.64 739.03 50.64 739.03 71.29 751.82 71.29"/>
  <path class="cls-2" d="M500.72,72.72v4.56c-4.68-3.34-10.41-5.3-16.59-5.3-15.85,0-28.7,12.85-28.7,28.7s12.85,28.7,28.7,28.7c6.18,0,11.91-1.96,16.59-5.3v4.22h19.17v-55.58h-19.17ZM488.03,114.74c-7.76,0-14.04-6.3-14.04-14.06s6.28-14.06,14.04-14.06c5.59,0,10.41,3.25,12.68,7.97.88,1.84,1.38,3.91,1.38,6.09s-.5,4.25-1.38,6.09c-2.27,4.72-7.09,7.97-12.68,7.97Z"/>
  <path class="cls-1" d="M644.62,71.17v9.57c-4.99-7.09-12.72-11.65-21.37-11.65-15.07,0-27.29,13.77-27.29,30.73s12.22,30.73,27.29,30.73c8.66,0,16.38-4.56,21.37-11.65v9.93h7.88v-57.67h-7.88ZM624.22,123.04c-11.27,0-20.41-10.24-20.41-22.85s9.14-22.87,20.41-22.87,20.39,10.24,20.39,22.87-9.12,22.85-20.39,22.85Z"/>
  <path class="cls-1" d="M711.65,112.26c0,8.91-10.57,16.12-23.59,16.12-5.2,0-10-1.15-13.89-3.08-5.49-2.74-9.19-7.04-9.65-11.96,1.26-.89,2.81-1.41,4.47-1.41,1.05,0,2.07.21,2.98.59.22,2.6,2.01,4.92,4.77,6.63,2.91,1.82,6.9,2.94,11.32,2.94,8.9,0,16.11-4.54,16.11-10.15,0-4.2-4.08-7.81-9.88-9.36-2.48.62-5.16.95-7.95.95-2.03,0-4.01-.17-5.9-.52-3.01-.52-5.8-1.45-8.23-2.68-5.76-2.94-9.48-7.64-9.48-12.92,0-8.9,10.57-16.12,23.61-16.12,5.11,0,9.84,1.12,13.7,3.01,5.51,2.68,9.24,6.94,9.81,11.81-1.24.83-2.72,1.31-4.34,1.31-1.29,0-2.5-.31-3.56-.86-.41-2.13-1.88-4.03-4.08-5.51-2.72-1.81-6.56-2.94-10.79-2.94-8.29,0-15.01,4.32-15.01,9.67,0,4.11,3.99,7.62,9.62,9,1.67.43,3.49.65,5.39.65,2.2,0,4.28-.31,6.16-.86,2.6.4,5.04,1.08,7.24,2.03.57.24,1.12.5,1.65.77,5.78,2.91,9.52,7.61,9.52,12.91Z"/>
  <path class="cls-2" d="M339.99,72.67v35.79c0,1.67-.22,3.29-.65,4.85-2.82,10.51-14.66,18.38-28.84,18.38s-26.02-7.86-28.84-18.38c-.43-1.57-.65-3.18-.65-4.85v-35.79h18.4v31.61c0,6.13,4.97,11.1,11.1,11.1s11.1-4.97,11.1-11.1v-31.61h18.4Z"/>
</svg>
