<?xml version="1.0" encoding="UTF-8"?>
<svg id="Layer_1" data-name="Layer 1" xmlns="http://www.w3.org/2000/svg" viewBox="0 0 657.54 129.01">
  <defs>
    <style>
      .cls-1 {
        fill: #114b59;
      }

      .cls-2 {
        fill: #a0c7aa;
      }
    </style>
  </defs>
  <path class="cls-2" d="M130.7,54.77c0,12.9-6.58,24.26-16.56,30.93,3.15-4.65,5-10.26,5-16.31,0-16.03-13-29.03-29.03-29.03-6.19,0-11.92,1.93-16.63,5.24-3.03,2.11-5.63,4.79-7.66,7.87-2.15-3.25-4.94-6.05-8.17-8.23-4.62-3.07-10.16-4.88-16.13-4.88-16.03,0-29.03,13-29.03,29.03,0,5.49,1.52,10.63,4.17,15.02C6.61,77.74,0,66.36,0,53.42,0,32.9,16.63,16.27,37.14,16.27c11.6,0,21.97,5.31,28.78,13.65,6.8-7.56,16.66-12.31,27.62-12.31,7.74,0,14.92,2.36,20.86,6.4,9.83,6.7,16.3,17.97,16.3,30.76Z"/>
  <path class="cls-2" d="M69.34,88.05l4.83,20.65-6.7,1.57-5.06-21.58c-2.35-1.08-3.97-3.46-3.97-6.22,0-1.63.56-3.12,1.51-4.29,1.26-1.58,3.21-2.59,5.39-2.59.38,0,.74.03,1.1.09,1.01.17,1.93.54,2.74,1.08l33.26-22.08,3.81,5.72-34.06,22.61c-.15,2.08-1.23,3.9-2.84,5.04Z"/>
  <rect class="cls-1" x="155.19" width="6.21" height="129.01"/>
  <path class="cls-1" d="M238.77,104.44c-6.91,5.45-15.61,8.68-25.07,8.68-22.44,0-40.64-18.2-40.64-40.64s18.2-40.64,40.64-40.64c9.14,0,17.56,3.01,24.35,8.1l-6.79,13.53c-4.27-3.57-9.8-5.72-15.82-5.72-13.65,0-24.73,11.06-24.73,24.73s11.08,24.71,24.73,24.71c6.29,0,12.03-2.35,16.38-6.2l6.95,13.44Z"/>
  <circle class="cls-1" cx="317.08" cy="44.54" r="10.14"/>
  <rect class="cls-1" x="308.79" y="63" width="16.77" height="48.62"/>
  <path class="cls-1" d="M374.26,31.54v36.26c-4.24-3.21-9.54-5.1-15.26-5.1-14.01,0-25.38,11.36-25.38,25.38s11.36,25.36,25.38,25.36c5.72,0,11.02-1.9,15.26-5.09v4.47h15.49V31.54h-15.49ZM363.3,101.84c-6.89,0-12.48-5.58-12.48-12.48s5.58-12.48,12.48-12.48c4.73,0,8.83,2.62,10.96,6.5.96,1.78,1.52,3.81,1.52,5.98s-.56,4.2-1.52,5.98c-2.12,3.88-6.23,6.5-10.96,6.5Z"/>
  <polygon class="cls-2" points="473.48 53.2 473.48 77.07 511.55 77.07 511.55 83.95 473.48 83.95 473.48 113.43 465.75 113.43 465.75 46.32 514.35 46.32 514.35 53.2 473.48 53.2"/>
  <polygon class="cls-2" points="657.54 62.35 657.54 68.81 646.35 68.81 646.35 113.12 638.62 113.12 638.62 68.81 628.29 68.81 628.29 62.35 638.62 62.35 638.62 44.29 646.35 44.29 646.35 62.35 657.54 62.35"/>
  <path class="cls-1" d="M437.93,63.6v3.99c-4.09-2.92-9.11-4.64-14.51-4.64-13.86,0-25.1,11.24-25.1,25.1s11.24,25.1,25.1,25.1c5.4,0,10.42-1.72,14.51-4.64v3.69h16.77v-48.61h-16.77ZM426.83,100.36c-6.79,0-12.28-5.51-12.28-12.3s5.49-12.3,12.28-12.3c4.89,0,9.11,2.84,11.09,6.97.77,1.61,1.2,3.42,1.2,5.33s-.44,3.72-1.2,5.33c-1.99,4.12-6.2,6.97-11.09,6.97Z"/>
  <path class="cls-2" d="M563.78,62.25v8.37c-4.36-6.2-11.12-10.19-18.69-10.19-13.18,0-23.87,12.04-23.87,26.88s10.69,26.88,23.87,26.88c7.57,0,14.33-3.99,18.69-10.19v8.68h6.89v-50.43h-6.89ZM545.94,107.61c-9.86,0-17.85-8.96-17.85-19.99s7.99-20,17.85-20,17.84,8.96,17.84,20-7.98,19.99-17.84,19.99Z"/>
  <path class="cls-2" d="M622.41,98.18c0,7.8-9.24,14.1-20.63,14.1-4.55,0-8.74-1.01-12.15-2.69-4.8-2.39-8.04-6.16-8.44-10.46,1.1-.78,2.45-1.23,3.91-1.23.92,0,1.81.18,2.6.51.2,2.27,1.76,4.3,4.17,5.79,2.54,1.6,6.04,2.57,9.9,2.57,7.78,0,14.09-3.97,14.09-8.88,0-3.67-3.57-6.83-8.64-8.19-2.17.54-4.52.83-6.95.83-1.78,0-3.51-.15-5.16-.45-2.63-.45-5.07-1.26-7.19-2.35-5.04-2.57-8.29-6.68-8.29-11.3,0-7.78,9.24-14.1,20.65-14.1,4.47,0,8.61.98,11.98,2.63,4.82,2.35,8.08,6.07,8.58,10.32-1.08.72-2.38,1.14-3.79,1.14-1.13,0-2.18-.27-3.12-.75-.36-1.87-1.64-3.52-3.57-4.82-2.38-1.58-5.73-2.57-9.44-2.57-7.25,0-13.12,3.78-13.12,8.46,0,3.6,3.49,6.67,8.41,7.87,1.46.38,3.06.57,4.71.57,1.93,0,3.75-.27,5.39-.75,2.27.35,4.41.95,6.34,1.78.5.21.98.44,1.44.68,5.06,2.54,8.32,6.65,8.32,11.29Z"/>
  <path class="cls-1" d="M297.35,63.55v31.31c0,1.46-.2,2.87-.57,4.24-2.47,9.2-12.82,16.07-25.22,16.07s-22.76-6.88-25.22-16.07c-.38-1.37-.57-2.78-.57-4.24v-31.31h16.09v27.65c0,5.36,4.35,9.71,9.71,9.71s9.71-4.35,9.71-9.71v-27.65h16.09Z"/>
</svg>
